<svg width="106" height="106" viewBox="0 0 106 106" fill="none" xmlns="http://www.w3.org/2000/svg">
<g filter="url(#filter0_ddii_205_1784)">
<rect x="19.667" y="19.3506" width="66.6667" height="66.6667" rx="33.3333" fill="url(#paint0_linear_205_1784)"/>
<rect x="20.3473" y="20.0309" width="65.3061" height="65.3061" rx="32.6531" stroke="white" stroke-width="1.36054"/>
</g>
<path d="M52.1361 41.0934C52.2507 41.0434 52.3744 41.0176 52.4994 41.0176C52.6244 41.0176 52.7481 41.0434 52.8627 41.0934C57.3404 43.051 61.6117 45.4504 65.6133 48.2558C65.7543 48.3547 65.8643 48.4916 65.9304 48.6506C65.9965 48.8097 66.0161 48.9842 65.9867 49.1539C65.9574 49.3237 65.8804 49.4815 65.7648 49.6092C65.6491 49.7368 65.4996 49.8289 65.3336 49.8747C61.1796 51.0225 57.1601 52.6105 53.3434 54.6117L53.3397 54.6141L52.928 54.8321C52.7963 54.9025 52.6493 54.9393 52.5 54.9393C52.3507 54.9393 52.2037 54.9025 52.072 54.8321C50.4349 53.9587 48.7594 53.1595 47.0504 52.437V52.1657C47.0496 52.0903 47.0683 52.0159 47.1048 51.9499C47.1413 51.8839 47.1944 51.8285 47.2587 51.7891C49.0867 50.6822 50.967 49.6639 52.8929 48.7377C53.11 48.6333 53.2768 48.447 53.3565 48.2197C53.4362 47.9924 53.4223 47.7427 53.318 47.5256C53.2136 47.3085 53.0272 47.1418 52.7999 47.0621C52.5726 46.9824 52.323 46.9962 52.1059 47.1006C50.1269 48.0513 48.1953 49.0975 46.3178 50.2356C46.0508 50.3977 45.8204 50.6137 45.6414 50.8697C45.4623 51.1257 45.3384 51.4161 45.2777 51.7225C43.4385 51.0153 41.5658 50.3982 39.6664 49.8735C39.5004 49.8277 39.3509 49.7356 39.2352 49.6079C39.1196 49.4803 39.0426 49.3224 39.0133 49.1527C38.9839 48.983 39.0035 48.8085 39.0696 48.6494C39.1357 48.4904 39.2457 48.3535 39.3867 48.2546C43.3879 45.4496 47.6589 43.0507 52.1361 41.0934Z" fill="#1B6EA1"/>
<path d="M53.7828 56.4324C56.7571 54.8436 59.8628 53.514 63.0654 52.4582C63.2285 54.1712 63.3314 55.9004 63.3742 57.6457C63.3789 57.8286 63.3282 58.0087 63.2288 58.1623C63.1294 58.3159 62.9859 58.4359 62.8172 58.5066C59.3851 59.9411 56.0986 61.7017 53.003 63.7643C52.8538 63.8637 52.6785 63.9168 52.4992 63.9168C52.32 63.9168 52.1447 63.8637 51.9955 63.7643C48.9003 61.7018 45.6142 59.9411 42.1825 58.5066C42.0137 58.4362 41.8701 58.3164 41.7705 58.163C41.6709 58.0096 41.6199 57.8297 41.6243 57.6469C41.6671 55.9008 41.77 54.1708 41.9331 52.457C43.0487 52.8251 44.149 53.2247 45.2339 53.6558V55.1936C44.9723 55.3444 44.7524 55.558 44.5941 55.8151C44.4357 56.0722 44.344 56.3647 44.3272 56.6662C44.3103 56.9677 44.3689 57.2686 44.4977 57.5417C44.6264 57.8149 44.8212 58.0516 45.0644 58.2305C44.9554 58.6907 44.7956 59.1423 44.5837 59.5746C45.131 59.8329 45.6743 60.0993 46.2135 60.3738C46.5176 59.7561 46.7418 59.1022 46.8807 58.4279C47.1869 58.2918 47.4495 58.0735 47.6394 57.7974C47.8293 57.5213 47.9391 57.198 47.9566 56.8633C47.9742 56.5287 47.8988 56.1957 47.7388 55.9012C47.5789 55.6067 47.3405 55.3623 47.0503 55.1948V54.4138C48.4645 55.0322 49.854 55.7056 51.2157 56.4324C51.6106 56.6433 52.0515 56.7537 52.4992 56.7537C52.947 56.7537 53.3878 56.6433 53.7828 56.4324Z" fill="#1B6EA1"/>
<path d="M43.3714 61.2624C43.88 60.7551 44.2832 60.1847 44.5823 59.5732C45.1313 59.8324 45.6749 60.0996 46.2134 60.3748C45.818 61.1801 45.2918 61.9141 44.6562 62.5472C44.484 62.7076 44.2563 62.7949 44.021 62.7908C43.7858 62.7866 43.5613 62.6913 43.3949 62.5249C43.2285 62.3585 43.1332 62.134 43.129 61.8988C43.1249 61.6635 43.2122 61.4358 43.3726 61.2636" fill="#1B6EA1"/>
<defs>
<filter id="filter0_ddii_205_1784" x="0.619373" y="0.302967" width="104.762" height="104.762" filterUnits="userSpaceOnUse" color-interpolation-filters="sRGB">
<feFlood flood-opacity="0" result="BackgroundImageFix"/>
<feColorMatrix in="SourceAlpha" type="matrix" values="0 0 0 0 0 0 0 0 0 0 0 0 0 0 0 0 0 0 127 0" result="hardAlpha"/>
<feOffset dx="5.44218" dy="5.44218"/>
<feGaussianBlur stdDeviation="6.80272"/>
<feComposite in2="hardAlpha" operator="out"/>
<feColorMatrix type="matrix" values="0 0 0 0 0.0862745 0 0 0 0 0.0980392 0 0 0 0 0.141176 0 0 0 0.1 0"/>
<feBlend mode="normal" in2="BackgroundImageFix" result="effect1_dropShadow_205_1784"/>
<feColorMatrix in="SourceAlpha" type="matrix" values="0 0 0 0 0 0 0 0 0 0 0 0 0 0 0 0 0 0 127 0" result="hardAlpha"/>
<feOffset dx="-5.44218" dy="-5.44218"/>
<feGaussianBlur stdDeviation="6.80272"/>
<feComposite in2="hardAlpha" operator="out"/>
<feColorMatrix type="matrix" values="0 0 0 0 1 0 0 0 0 1 0 0 0 0 1 0 0 0 1 0"/>
<feBlend mode="normal" in2="effect1_dropShadow_205_1784" result="effect2_dropShadow_205_1784"/>
<feBlend mode="normal" in="SourceGraphic" in2="effect2_dropShadow_205_1784" result="shape"/>
<feColorMatrix in="SourceAlpha" type="matrix" values="0 0 0 0 0 0 0 0 0 0 0 0 0 0 0 0 0 0 127 0" result="hardAlpha"/>
<feOffset dx="13.6054" dy="13.6054"/>
<feGaussianBlur stdDeviation="10.2041"/>
<feComposite in2="hardAlpha" operator="arithmetic" k2="-1" k3="1"/>
<feColorMatrix type="matrix" values="0 0 0 0 0.55599 0 0 0 0 0.609734 0 0 0 0 0.729167 0 0 0 0.4 0"/>
<feBlend mode="normal" in2="shape" result="effect3_innerShadow_205_1784"/>
<feColorMatrix in="SourceAlpha" type="matrix" values="0 0 0 0 0 0 0 0 0 0 0 0 0 0 0 0 0 0 127 0" result="hardAlpha"/>
<feOffset dx="-5.44218" dy="-25.8503"/>
<feGaussianBlur stdDeviation="6.80272"/>
<feComposite in2="hardAlpha" operator="arithmetic" k2="-1" k3="1"/>
<feColorMatrix type="matrix" values="0 0 0 0 1 0 0 0 0 1 0 0 0 0 1 0 0 0 0.7 0"/>
<feBlend mode="normal" in2="effect3_innerShadow_205_1784" result="effect4_innerShadow_205_1784"/>
</filter>
<linearGradient id="paint0_linear_205_1784" x1="53.0003" y1="34.5021" x2="53.0003" y2="89.9134" gradientUnits="userSpaceOnUse">
<stop stop-color="#F1F4F9"/>
<stop offset="1" stop-color="#C6D1E3"/>
</linearGradient>
</defs>
</svg>
