<svg width="106" height="106" viewBox="0 0 106 106" fill="none" xmlns="http://www.w3.org/2000/svg">
<g filter="url(#filter0_ddii_205_1749)">
<rect x="19.667" y="19.3506" width="66.6667" height="66.6667" rx="33.3333" fill="url(#paint0_linear_205_1749)"/>
<rect x="20.3473" y="20.0309" width="65.3061" height="65.3061" rx="32.6531" stroke="white" stroke-width="1.36054"/>
</g>
<g clip-path="url(#clip0_205_1749)">
<path d="M50.0104 50.1254C49.0074 50.1254 48.0268 49.8278 47.1929 49.2704C46.359 48.7129 45.7092 47.9207 45.3256 46.9938C44.9421 46.067 44.8422 45.0472 45.0384 44.0635C45.2346 43.0798 45.7183 42.1764 46.4281 41.4677C47.1379 40.7589 48.0419 40.2766 49.0259 40.0819C50.0099 39.8871 51.0295 39.9886 51.9558 40.3734C52.8821 40.7583 53.6734 41.4093 54.2296 42.2441C54.7858 43.0788 55.0819 44.0598 55.0804 45.0629C55.0765 46.4056 54.5408 47.6921 53.5906 48.6409C52.6405 49.5896 51.3532 50.1234 50.0104 50.1254ZM50.0104 41.4929C49.3043 41.4929 48.6141 41.7022 48.027 42.0945C47.44 42.4868 46.9824 43.0443 46.7122 43.6967C46.442 44.349 46.3713 45.0668 46.509 45.7593C46.6468 46.4518 46.9868 47.088 47.4861 47.5872C47.9853 48.0865 48.6214 48.4265 49.314 48.5643C50.0065 48.702 50.7243 48.6313 51.3766 48.3611C52.0289 48.0909 52.5865 47.6333 52.9788 47.0462C53.371 46.4592 53.5804 45.7689 53.5804 45.0629C53.5804 44.116 53.2043 43.208 52.5348 42.5385C51.8653 41.869 50.9572 41.4929 50.0104 41.4929Z" fill="#1B6EA1"/>
<path d="M51.315 62.7778C51.1511 62.6138 51.0246 62.4163 50.9444 62.1988C50.8641 61.9812 50.8319 61.7489 50.85 61.5178H42V57.1828C43.0631 56.0477 44.3529 55.1487 45.7858 54.544C47.2186 53.9393 48.7626 53.6425 50.3175 53.6728H50.8575C50.8231 53.4213 50.8471 53.1653 50.9278 52.9247C51.0084 52.684 51.1435 52.4652 51.3225 52.2853L51.4125 52.2028C51.06 52.2028 50.6625 52.1578 50.3175 52.1578C48.4878 52.1143 46.6713 52.478 44.9994 53.2226C43.3274 53.9671 41.8418 55.0738 40.65 56.4628C40.5526 56.5926 40.5 56.7505 40.5 56.9128V61.5178C40.5 61.9156 40.658 62.2971 40.9393 62.5784C41.2206 62.8597 41.6022 63.0178 42 63.0178H51.525L51.315 62.7778Z" fill="#1B6EA1"/>
<path d="M64.2597 56.5072L62.7597 56.0497C62.6525 55.6828 62.5067 55.3283 62.3247 54.9922L63.0747 53.5972C63.0991 53.5414 63.105 53.4792 63.0915 53.4199C63.078 53.3605 63.0458 53.307 62.9997 53.2672L61.9122 52.1797C61.8711 52.1352 61.8162 52.1058 61.7563 52.0963C61.6964 52.0867 61.6351 52.0976 61.5822 52.1272L60.2022 52.8772C59.8628 52.6853 59.5031 52.5319 59.1297 52.4197L58.6722 50.9197C58.6528 50.8645 58.616 50.8171 58.5673 50.7846C58.5186 50.7521 58.4606 50.7364 58.4022 50.7397H56.8647C56.8056 50.739 56.748 50.7577 56.7006 50.7929C56.6532 50.8282 56.6186 50.878 56.6022 50.9347L56.1447 52.4347C55.7691 52.544 55.4068 52.6949 55.0647 52.8847L53.6997 52.1347C53.6479 52.1057 53.5879 52.0951 53.5293 52.1046C53.4707 52.1142 53.4171 52.1433 53.3772 52.1872L52.2672 53.2672C52.2261 53.3105 52.1996 53.3657 52.1915 53.4249C52.1834 53.4842 52.1942 53.5444 52.2222 53.5972L52.9722 54.9622C52.774 55.3003 52.6155 55.6602 52.4997 56.0347L50.9997 56.4847C50.943 56.5011 50.8932 56.5357 50.8579 56.5831C50.8227 56.6305 50.804 56.6881 50.8047 56.7472V58.2847C50.8091 58.3389 50.8303 58.3903 50.8652 58.432C50.9001 58.4736 50.9471 58.5034 50.9997 58.5172L52.4997 58.9747C52.6106 59.3426 52.7615 59.6972 52.9497 60.0322L52.1997 61.4647C52.1711 61.516 52.16 61.5753 52.1681 61.6335C52.1762 61.6917 52.2031 61.7457 52.2447 61.7872L53.3322 62.8747C53.3747 62.9171 53.4295 62.945 53.4887 62.9544C53.548 62.9638 53.6087 62.9543 53.6622 62.9272L55.0647 62.1772C55.3982 62.3572 55.7503 62.5005 56.1147 62.6047L56.5647 64.1047C56.5832 64.1602 56.6182 64.2087 56.6652 64.2436C56.7122 64.2785 56.7687 64.2981 56.8272 64.2997H58.3647C58.4235 64.2992 58.4806 64.28 58.5277 64.245C58.5749 64.2099 58.6097 64.1608 58.6272 64.1047L59.0847 62.5672C59.444 62.462 59.7909 62.3187 60.1197 62.1397L61.5372 62.8897C61.5893 62.9174 61.6491 62.9272 61.7073 62.9178C61.7655 62.9083 61.8191 62.88 61.8597 62.8372L62.9997 61.8172C63.0304 61.7732 63.0468 61.7208 63.0468 61.6672C63.0468 61.6136 63.0304 61.5612 62.9997 61.5172L62.2497 60.1072C62.4318 59.7763 62.5776 59.4268 62.6847 59.0647L64.1847 58.6072C64.2414 58.5908 64.2912 58.5562 64.3265 58.5088C64.3617 58.4614 64.3804 58.4038 64.3797 58.3447V56.7697C64.3866 56.7191 64.379 56.6675 64.3577 56.6211C64.3365 56.5746 64.3025 56.5351 64.2597 56.5072ZM57.6372 60.0172C57.1411 60.0187 56.6558 59.8728 56.2427 59.5981C55.8296 59.3235 55.5074 58.9323 55.3168 58.4743C55.1263 58.0162 55.0761 57.512 55.1725 57.0253C55.2689 56.5387 55.5076 56.0917 55.8584 55.7409C56.2092 55.3901 56.6562 55.1514 57.1429 55.055C57.6295 54.9586 58.1338 55.0088 58.5918 55.1993C59.0498 55.3898 59.441 55.7121 59.7157 56.1252C59.9903 56.5383 60.1362 57.0236 60.1347 57.5197C60.1327 58.1815 59.869 58.8156 59.401 59.2835C58.9331 59.7514 58.299 60.0152 57.6372 60.0172Z" fill="#1B6EA1"/>
</g>
<defs>
<filter id="filter0_ddii_205_1749" x="0.619373" y="0.302967" width="104.762" height="104.762" filterUnits="userSpaceOnUse" color-interpolation-filters="sRGB">
<feFlood flood-opacity="0" result="BackgroundImageFix"/>
<feColorMatrix in="SourceAlpha" type="matrix" values="0 0 0 0 0 0 0 0 0 0 0 0 0 0 0 0 0 0 127 0" result="hardAlpha"/>
<feOffset dx="5.44218" dy="5.44218"/>
<feGaussianBlur stdDeviation="6.80272"/>
<feComposite in2="hardAlpha" operator="out"/>
<feColorMatrix type="matrix" values="0 0 0 0 0.0862745 0 0 0 0 0.0980392 0 0 0 0 0.141176 0 0 0 0.1 0"/>
<feBlend mode="normal" in2="BackgroundImageFix" result="effect1_dropShadow_205_1749"/>
<feColorMatrix in="SourceAlpha" type="matrix" values="0 0 0 0 0 0 0 0 0 0 0 0 0 0 0 0 0 0 127 0" result="hardAlpha"/>
<feOffset dx="-5.44218" dy="-5.44218"/>
<feGaussianBlur stdDeviation="6.80272"/>
<feComposite in2="hardAlpha" operator="out"/>
<feColorMatrix type="matrix" values="0 0 0 0 1 0 0 0 0 1 0 0 0 0 1 0 0 0 1 0"/>
<feBlend mode="normal" in2="effect1_dropShadow_205_1749" result="effect2_dropShadow_205_1749"/>
<feBlend mode="normal" in="SourceGraphic" in2="effect2_dropShadow_205_1749" result="shape"/>
<feColorMatrix in="SourceAlpha" type="matrix" values="0 0 0 0 0 0 0 0 0 0 0 0 0 0 0 0 0 0 127 0" result="hardAlpha"/>
<feOffset dx="13.6054" dy="13.6054"/>
<feGaussianBlur stdDeviation="10.2041"/>
<feComposite in2="hardAlpha" operator="arithmetic" k2="-1" k3="1"/>
<feColorMatrix type="matrix" values="0 0 0 0 0.55599 0 0 0 0 0.609734 0 0 0 0 0.729167 0 0 0 0.4 0"/>
<feBlend mode="normal" in2="shape" result="effect3_innerShadow_205_1749"/>
<feColorMatrix in="SourceAlpha" type="matrix" values="0 0 0 0 0 0 0 0 0 0 0 0 0 0 0 0 0 0 127 0" result="hardAlpha"/>
<feOffset dx="-5.44218" dy="-25.8503"/>
<feGaussianBlur stdDeviation="6.80272"/>
<feComposite in2="hardAlpha" operator="arithmetic" k2="-1" k3="1"/>
<feColorMatrix type="matrix" values="0 0 0 0 1 0 0 0 0 1 0 0 0 0 1 0 0 0 0.7 0"/>
<feBlend mode="normal" in2="effect3_innerShadow_205_1749" result="effect4_innerShadow_205_1749"/>
</filter>
<linearGradient id="paint0_linear_205_1749" x1="53.0003" y1="34.5021" x2="53.0003" y2="89.9134" gradientUnits="userSpaceOnUse">
<stop stop-color="#F1F4F9"/>
<stop offset="1" stop-color="#C6D1E3"/>
</linearGradient>
<clipPath id="clip0_205_1749">
<rect width="27" height="27" fill="white" transform="translate(39 39.0176)"/>
</clipPath>
</defs>
</svg>
