<svg width="116" height="116" viewBox="0 0 116 116" fill="none" xmlns="http://www.w3.org/2000/svg">
<circle cx="58" cy="58.0254" r="56.425" stroke="#1B6EA1" stroke-width="1.85"/>
<path d="M79.8853 54.019C80.0032 53.875 80.1203 53.7311 80.2287 53.5862C82.2033 50.9353 83.7139 45.7686 74.3448 45.7686C71.7216 45.7686 68.3335 46.3513 64.8127 47.3217C64.7555 41.7335 62.0499 36.7923 57.8969 33.6617C57.7755 33.5586 57.6584 33.4528 57.524 33.3643L57.5769 33.4215C54.6368 31.3002 51.1032 30.1588 47.4776 30.1592C45.7892 30.1592 44.1624 30.4124 42.6188 30.8625L42.5971 30.8564L42.6136 30.8642C39.7813 31.6916 37.207 33.2278 35.1341 35.3276C32.0386 38.4627 30.2579 42.663 30.1564 47.0676L30.1408 47.0372L30.1547 47.0901C30.153 47.2272 30.1348 47.3624 30.1348 47.5029C30.1348 53.431 33.1144 58.6593 37.6515 61.7881L37.6394 61.7872C37.644 61.7872 37.6487 61.7881 37.6533 61.7898C39.551 63.1004 41.6921 64.0172 43.9501 64.4863C46.2081 64.9553 48.5372 64.967 50.7998 64.5206L50.799 64.5215C53.0823 67.3381 54.3969 69.9215 55.0968 72.1588C53.5468 73.923 51.8408 75.5437 49.9994 77.0012C49.5762 77.3402 49.5251 77.9343 49.8893 78.3288C50.2535 78.7251 50.8918 78.7728 51.3167 78.432C52.8478 77.2156 54.293 75.8949 55.6422 74.4794C56.2406 78.2898 55.1219 80.6728 55.0361 80.848C54.8409 81.2348 54.9493 81.6961 55.3023 81.9702C55.4779 82.1048 55.6909 82.1818 55.912 82.1905C56.1331 82.1992 56.3515 82.1392 56.5372 82.0187C59.418 80.1291 61.84 78.2768 63.8874 76.4843C64.4424 79.2524 64.0375 80.9842 64.0271 81.0232C63.9273 81.3996 64.0843 81.7924 64.4234 82.017C64.5929 82.1264 64.7897 82.1864 64.9914 82.19C65.1932 82.1937 65.392 82.141 65.5654 82.0378C68.0439 80.5353 70.2474 79.0145 72.176 77.4755C72.3399 79.549 71.9731 80.8411 71.9289 80.9868C71.7728 81.4854 72.0815 82.0066 72.6183 82.1531C72.7119 82.178 72.8065 82.1904 72.9018 82.1904C73.3389 82.1904 73.7439 81.9242 73.8722 81.5132C73.9321 81.3232 74.5582 79.196 74.0092 75.9241C74.7323 75.2851 75.4309 74.619 76.1035 73.927C76.1191 74.1351 76.1946 74.3424 76.3602 74.5063C76.5513 74.6892 76.8034 74.7948 77.0679 74.8027C77.3323 74.8105 77.5903 74.7201 77.7919 74.5488C77.8379 74.508 80.3865 72.1926 80.403 68.0856C81.2147 66.5027 81.7469 64.91 81.9995 63.3074C82.7453 58.5908 80.7881 55.2617 79.8853 54.019ZM74.3448 48.43C78.4787 48.43 77.8587 49.7862 76.6464 51.2119C74.0266 54.2939 66.8558 57.6837 60.3667 59.0807C62.5969 56.6033 64.062 53.5329 64.5847 50.2406C68.1445 49.1428 71.6861 48.43 74.3448 48.43ZM72.5628 59.4519C72.3312 61.1204 71.6522 63.6135 69.8164 66.6461C68.7463 65.2109 67.4256 63.7228 65.8039 62.2052C68.1401 61.462 70.452 60.529 72.5628 59.4519ZM60.5028 63.5554C60.3354 63.9743 60.1368 64.4313 59.9079 64.9161C59.5787 64.5449 59.2416 64.1809 58.8968 63.8243C59.434 63.7461 59.9694 63.6565 60.5028 63.5554ZM56.231 60.4197C55.2847 60.0408 54.3846 59.5556 53.548 58.9732L53.5428 58.968C53.6988 58.8726 53.8601 58.7868 54.0128 58.6853C54.6508 58.2472 55.2533 57.7595 55.8148 57.2267C55.9876 57.3464 56.1703 57.453 56.3628 57.5467C57.2647 57.9595 58.2195 58.0072 59.1283 57.8545C58.2727 58.8265 57.2995 59.6881 56.231 60.4197ZM63.087 47.5029C63.087 51.3385 61.6908 54.8506 59.3859 57.571C58.4033 57.6404 57.4347 57.5224 56.6499 57.0125C56.5294 56.9354 56.4127 56.8523 56.3004 56.7636C56.9235 56.1275 57.4891 55.4374 57.9906 54.7015C60.0944 51.5432 60.9399 47.7197 60.8124 44.0324C60.7593 42.1829 60.449 40.3497 59.8906 38.5856C59.7752 38.2396 59.6417 37.9006 59.5047 37.5632C61.8224 40.3567 63.0897 43.8731 63.087 47.5029ZM47.4776 31.8936C51.8752 31.8936 55.846 33.7285 58.686 36.664C58.9453 37.3447 59.1422 38.0515 59.3087 38.7487C59.7119 40.4839 59.8689 42.2703 59.8446 44.0402C59.7735 47.5697 58.9098 51.1226 56.956 54.0086C56.5162 54.6739 56.0173 55.2982 55.4653 55.8739C54.9996 55.227 54.6606 54.4612 54.3874 53.6894C53.9365 52.3566 53.6191 50.9543 53.3468 49.5365L52.5056 45.2534C51.883 42.4021 51.1363 39.4858 49.6205 36.8781C48.8686 35.5808 47.9034 34.3867 46.7258 33.4545C46.056 32.9439 45.3276 32.515 44.5561 32.1771C45.5189 31.991 46.4971 31.8961 47.4776 31.8936ZM44.1338 32.2638C46.1821 33.445 47.7525 35.2678 48.7672 37.3421C50.0228 39.8795 50.6966 42.6874 51.2889 45.5119C51.9211 48.3311 52.346 51.2448 53.4847 54.0389C53.8307 54.8636 54.2833 55.7161 54.9086 56.4185C54.1808 57.1006 53.3872 57.7089 52.5394 58.2344C51.7447 57.6454 50.9762 57.0219 50.2362 56.3656C48.1489 54.476 46.2211 52.4034 44.4243 50.2259C42.6133 48.0551 40.9288 45.7819 39.379 43.4176C38.6107 42.2313 37.8701 41.0259 37.2101 39.7746C36.7263 38.8857 36.2918 37.9699 35.9519 37.0134C38.1222 34.622 40.9808 32.9625 44.1338 32.2638ZM31.8691 47.5029C31.8691 43.552 33.3564 39.9506 35.7845 37.1981C35.9874 38.1625 36.3152 39.106 36.6577 40.0295C37.2023 41.3663 37.8341 42.6658 38.5491 43.9197C39.9643 46.4346 41.6354 48.7933 43.466 51.0202C45.3166 53.2281 47.3311 55.3163 49.6101 57.1088C50.3119 57.6638 51.0421 58.1812 51.8006 58.661C50.7938 59.2155 49.7336 59.667 48.6362 60.0086C48.6177 60.0144 48.5995 60.0193 48.5816 60.0234C47.8852 59.5664 47.1403 59.1969 46.3937 58.8752C44.2517 57.9586 42.0699 57.3073 40.0476 56.356C38.0132 55.4412 36.14 54.2314 34.5826 52.6497C33.5697 51.6238 32.7164 50.4392 31.9619 49.174C31.9011 48.619 31.8702 48.0612 31.8691 47.5029ZM32.236 50.8373C32.6956 51.7036 33.2246 52.5387 33.8654 53.2992C35.3778 55.1324 37.4001 56.5052 39.5264 57.486C41.6658 58.465 43.9057 59.0747 46.0425 59.7806C46.5333 59.9505 47.0198 60.1274 47.4941 60.3278C45.0755 60.9426 42.5451 61.1776 40.0008 61.1993C38.0425 60.1256 36.3366 58.6455 34.9973 56.8583C33.6581 55.0711 32.7166 53.0182 32.236 50.8373ZM47.4776 63.1123C45.0296 63.1123 42.7203 62.5296 40.6555 61.5201C43.3507 61.7586 46.0988 61.652 48.775 60.9703C48.873 61.0293 48.9761 61.0822 49.0733 61.1455C49.7287 61.562 50.2845 62.1178 50.701 62.7732C49.6604 62.9935 48.5824 63.1123 47.4776 63.1123ZM49.5424 60.751C50.7245 60.4062 51.8641 59.93 52.9401 59.3314C53.0407 59.386 53.1386 59.445 53.2384 59.497C54.122 59.9341 55.0473 60.3217 56.0012 60.5628C54.4484 61.5797 52.7258 62.3099 50.9152 62.7186C50.6154 61.9656 50.1456 61.2922 49.5424 60.751ZM52.9765 64.0792C53.5679 64.1185 54.2056 64.1382 54.8895 64.1382C55.3693 64.1382 55.8648 64.1217 56.3759 64.0888C57.2748 64.948 58.1256 65.8562 58.9245 66.8091C58.2258 68.0384 57.4444 69.2187 56.5857 70.342C55.8382 68.4195 54.6935 66.3166 52.9765 64.0792ZM57.6671 78.9107C57.916 77.3559 57.9706 75.2009 57.315 72.6106C58.3944 71.322 59.3761 69.9547 60.2522 68.5201C61.7802 70.6534 62.7358 72.634 63.3177 74.3597C61.7177 75.8322 59.855 77.3533 57.6671 78.9107ZM64.9341 72.7988C64.1936 70.9248 63.0549 68.834 61.3258 66.6114C61.9234 65.4608 62.4341 64.2671 62.8537 63.0403C63.1064 62.9779 63.3593 62.9131 63.6125 62.8461C65.7822 64.7721 67.4256 66.6435 68.6552 68.4082C67.6718 69.7896 66.4491 71.2604 64.9341 72.7988ZM66.2288 79.3521C66.2462 78.2274 66.1256 76.7011 65.6322 74.887C67.3137 73.2714 68.6917 71.7157 69.8147 70.2406C70.8666 72.0886 71.4823 73.7839 71.8248 75.2555C70.1962 76.6286 68.3309 77.9941 66.2288 79.3521ZM73.5019 73.7527C73.0233 72.1536 72.2549 70.3741 71.0669 68.4715C73.5418 64.7166 74.3787 61.6034 74.6232 59.5421C77.3184 62.768 78.2775 65.4598 78.4102 67.5783C77.3037 69.6448 75.6647 71.7061 73.5019 73.7527ZM79.9876 63.082C79.9235 63.4826 79.8315 63.8832 79.7266 64.283C79.0424 62.3249 77.7668 60.1196 75.6153 57.6915C76.6307 57.0333 77.5915 56.2944 78.4883 55.4819C79.293 56.7324 80.5825 59.4042 79.9876 63.082Z" fill="#1B6EA1"/>
<path d="M61.3978 57.8215L61.3926 57.8284L61.4264 57.8154L61.3978 57.8215Z" fill="white"/>
</svg>
