<svg width="84" height="84" viewBox="0 0 84 84" fill="none" xmlns="http://www.w3.org/2000/svg">
<path d="M73.249 55.5554V35.0693L45.2977 50.2603C44.256 50.839 43.1565 51.1283 41.9991 51.1283C40.8416 51.1283 39.7421 50.839 38.7004 50.2603L9.36016 34.2881C8.72359 33.9408 8.27452 33.5068 8.01294 32.986C7.75137 32.4651 7.62174 31.8864 7.62405 31.2499C7.62637 30.6133 7.75716 30.0346 8.01642 29.5138C8.27567 28.9929 8.72359 28.5589 9.36016 28.2117L38.7004 12.2394C39.2213 11.9501 39.7572 11.7325 40.3081 11.5867C40.859 11.4408 41.4227 11.3691 41.9991 11.3714C42.5754 11.3737 43.1403 11.4466 43.6935 11.5901C44.2467 11.7337 44.7815 11.9501 45.2977 12.2394L78.3706 30.295C78.9493 30.5844 79.3984 31.0045 79.7178 31.5554C80.0372 32.1063 80.1958 32.6989 80.1935 33.3332V55.5554C80.1935 56.5392 79.8602 57.3644 79.1935 58.0311C78.5268 58.6978 77.7028 59.03 76.7213 59.0276C75.7398 59.0253 74.9157 58.692 74.249 58.0276C73.5824 57.3633 73.249 56.5392 73.249 55.5554ZM38.7004 71.0936L21.3393 61.7186C20.1819 61.082 19.2849 60.214 18.6484 59.1144C18.0118 58.0149 17.6935 56.8286 17.6935 55.5554V42.361L38.7004 53.7325C39.7421 54.3112 40.8416 54.6006 41.9991 54.6006C43.1565 54.6006 44.256 54.3112 45.2977 53.7325L66.3046 42.361V55.5554C66.3046 56.8286 65.9863 58.0149 65.3497 59.1144C64.7132 60.214 63.8162 61.082 62.6588 61.7186L45.2977 71.0936C44.7768 71.383 44.2421 71.6006 43.6935 71.7464C43.1449 71.8922 42.5801 71.964 41.9991 71.9617C41.418 71.9594 40.8532 71.8876 40.3046 71.7464C39.756 71.6052 39.2213 71.3876 38.7004 71.0936Z" fill="white"/>
</svg>
