<svg width="51" height="50" viewBox="0 0 51 50" fill="none" xmlns="http://www.w3.org/2000/svg">
<path d="M44.1845 32.9467V20.7975L27.6082 29.8064C26.9904 30.1496 26.3383 30.3212 25.652 30.3212C24.9656 30.3212 24.3135 30.1496 23.6957 29.8064L6.29572 20.3342C5.9182 20.1283 5.65188 19.8709 5.49676 19.562C5.34163 19.2532 5.26476 18.91 5.26613 18.5325C5.2675 18.1549 5.34507 17.8117 5.49882 17.5029C5.65257 17.194 5.9182 16.9366 6.29572 16.7307L23.6957 7.25848C24.0046 7.08688 24.3224 6.95784 24.6491 6.87135C24.9759 6.78487 25.3101 6.74231 25.652 6.74368C25.9938 6.74506 26.3287 6.7883 26.6568 6.87341C26.9849 6.95852 27.302 7.08688 27.6082 7.25848L47.2218 17.9662C47.565 18.1378 47.8313 18.3869 48.0208 18.7137C48.2102 19.0404 48.3042 19.3918 48.3029 19.768V32.9467C48.3029 33.5301 48.1052 34.0195 47.7098 34.4149C47.3145 34.8102 46.8258 35.0072 46.2437 35.0058C45.6616 35.0045 45.1729 34.8068 44.7776 34.4128C44.3822 34.0188 44.1845 33.5301 44.1845 32.9467ZM23.6957 42.1615L13.3999 36.6017C12.7135 36.2242 12.1815 35.7094 11.804 35.0573C11.4265 34.4053 11.2377 33.7017 11.2377 32.9467V25.1218L23.6957 31.8656C24.3135 32.2088 24.9656 32.3804 25.652 32.3804C26.3383 32.3804 26.9904 32.2088 27.6082 31.8656L40.0662 25.1218V32.9467C40.0662 33.7017 39.8774 34.4053 39.4999 35.0573C39.1224 35.7094 38.5904 36.2242 37.904 36.6017L27.6082 42.1615C27.2993 42.3331 26.9822 42.4621 26.6568 42.5486C26.3315 42.6351 25.9965 42.6776 25.652 42.6763C25.3074 42.6749 24.9724 42.6323 24.6471 42.5486C24.3217 42.4649 24.0046 42.3358 23.6957 42.1615Z" fill="#656565"/>
</svg>
