<svg width="115" height="116" viewBox="0 0 115 116" fill="none" xmlns="http://www.w3.org/2000/svg">
<path d="M44.0869 61.8933C44.0869 62.9571 44.0869 63.4913 44.2858 63.97C44.4847 64.4486 44.8593 64.8256 45.6132 65.5795L46.2445 66.2108C46.9984 66.9646 47.3753 67.3393 47.854 67.5381C48.3327 67.737 48.8645 67.737 49.9306 67.737H51.9032C53.4988 67.737 54.2989 67.737 55.0181 67.4387C55.735 67.1427 56.2992 66.5785 57.43 65.4476L75.4051 47.4726C77.1233 45.7544 77.9812 44.8965 78.3767 43.9391C78.6391 43.3069 78.7741 42.6291 78.7741 41.9446C78.7741 41.26 78.6391 40.5822 78.3767 39.95C77.9812 38.9926 77.1233 38.1347 75.4051 36.4188C73.6892 34.7006 72.8313 33.8427 71.8739 33.4473C71.2417 33.1849 70.5639 33.0498 69.8794 33.0498C69.1949 33.0498 68.5171 33.1849 67.8849 33.4473C66.9275 33.8427 66.0695 34.7006 64.3514 36.4188L46.3763 54.3939C45.2478 55.5247 44.6812 56.089 44.3852 56.8058C44.0869 57.5227 44.0869 58.3251 44.0869 59.9208V61.8933Z" stroke="#1B6EA1" stroke-width="2.59" stroke-linecap="round" stroke-linejoin="round"/>
<path d="M43.912 63.1123L33.5173 73.5093C33.1961 73.823 32.9404 74.1973 32.7649 74.6105C32.5895 75.0238 32.4978 75.4677 32.4952 75.9167C32.4926 76.3656 32.5791 76.8106 32.7498 77.2259C32.9204 77.6411 33.1718 78.0184 33.4893 78.3357C33.8068 78.6531 34.1842 78.9043 34.5995 79.0748C35.0149 79.2452 35.4599 79.3315 35.9089 79.3287C36.3578 79.3259 36.8017 79.234 37.2149 79.0583C37.628 78.8827 38.0022 78.6268 38.3157 78.3054L48.7104 67.9107M42.9292 74.6748L37.1479 68.8936" stroke="#1B6EA1" stroke-width="2.59" stroke-linecap="round" stroke-linejoin="round"/>
<path d="M70.6797 76.9873C67.4868 76.9873 64.8984 74.3989 64.8984 71.2061C64.8984 68.0132 67.4868 65.4248 70.6797 65.4248C73.8726 65.4248 76.4609 68.0132 76.4609 71.2061C76.4609 74.3989 73.8726 76.9873 70.6797 76.9873Z" stroke="#1B6EA1" stroke-width="2.59" stroke-linecap="round" stroke-linejoin="round"/>
<circle cx="57.5" cy="58.0264" r="56.425" stroke="#1B6EA1" stroke-width="1.85"/>
</svg>
