<svg width="116" height="116" viewBox="0 0 116 116" fill="none" xmlns="http://www.w3.org/2000/svg">
<circle cx="58" cy="58.0273" r="56.425" stroke="#1B6EA1" stroke-width="1.85"/>
<path d="M56.1504 76.9893C67.6448 76.9893 76.9629 67.6712 76.9629 56.1768C76.9629 44.6823 67.6448 35.3643 56.1504 35.3643C44.656 35.3643 35.3379 44.6823 35.3379 56.1768C35.3379 67.6712 44.656 76.9893 56.1504 76.9893Z" stroke="#1B6EA1" stroke-width="2.59" stroke-miterlimit="10" stroke-linecap="round"/>
<path d="M56.1494 47.4125L47.9014 54.3316M56.1494 47.4125L64.3975 54.3316M56.1494 47.4125V41.172M47.9014 54.3316L50.0791 63.114M47.9014 54.3316L42.1704 51.9035M50.0791 63.114H62.2197M50.0791 63.114L47.0439 68.3172M62.2197 63.114L64.3975 54.3316M62.2197 63.114L65.2549 68.3172L62.2197 76.0134M64.3975 54.3316L70.1285 51.9035M70.1285 51.9035L72.923 43.9622M70.1285 51.9035L76.8535 57.6909M42.1704 51.9035L39.3758 43.9622M42.1704 51.9035L35.4453 57.6909M56.1494 41.172L63.0869 36.5499M56.1494 41.172L49.2119 36.5488M72.923 68.3172H65.4717M47.0439 68.3172L50.1192 76.0676M47.0439 68.3172H39.4159" stroke="#1B6EA1" stroke-width="2.59" stroke-linecap="round" stroke-linejoin="round"/>
</svg>
