<svg width="115" height="115" viewBox="0 0 115 115" fill="none" xmlns="http://www.w3.org/2000/svg">
<circle cx="57.5" cy="57.5264" r="56.425" stroke="#1B6EA1" stroke-width="1.85"/>
<path d="M56.9495 49.6064C56.9495 50.0352 56.8223 50.4544 56.5841 50.8109C56.3459 51.1674 56.0073 51.4453 55.6112 51.6094C55.215 51.7735 54.7791 51.8164 54.3586 51.7328C53.938 51.6491 53.5517 51.4426 53.2485 51.1394C52.9453 50.8362 52.7388 50.4499 52.6552 50.0294C52.5715 49.6089 52.6145 49.1729 52.7786 48.7768C52.9427 48.3807 53.2205 48.0421 53.577 47.8038C53.9336 47.5656 54.3527 47.4385 54.7815 47.4385C55.3565 47.4385 55.9079 47.6669 56.3145 48.0735C56.7211 48.48 56.9495 49.0315 56.9495 49.6064ZM77.762 55.9911C77.666 61.7198 75.3565 67.1891 71.3175 71.2528C67.2784 75.3165 61.8233 77.6592 56.0953 77.79H55.6335C50.2096 77.8265 44.9639 75.855 40.9065 72.2552C40.7747 72.1426 40.6667 72.0048 40.5889 71.8499C40.5111 71.695 40.4651 71.5261 40.4535 71.3532C40.4419 71.1802 40.465 71.0067 40.5214 70.8428C40.5778 70.6789 40.6664 70.5279 40.782 70.3987C40.8976 70.2696 41.0379 70.1648 41.1945 70.0906C41.3512 70.0164 41.5211 69.9742 41.6943 69.9666C41.8674 69.959 42.0404 69.9861 42.2029 70.0463C42.3655 70.1065 42.5144 70.1985 42.6409 70.3171C44.0697 71.5939 45.6845 72.6459 47.4299 73.4368L53.717 64.7887C48.5291 62.3237 42.8382 63.2863 39.6686 63.824C38.4697 64.0334 37.236 63.9004 36.1093 63.4402C34.9826 62.98 34.0086 62.2113 33.2991 61.2224C33.2821 61.2001 33.2662 61.1769 33.2514 61.153L30.2618 56.3835C30.1709 56.2379 30.1097 56.0758 30.0818 55.9065C30.0539 55.7371 30.0597 55.5639 30.099 55.3969C30.1383 55.2298 30.2103 55.0722 30.3108 54.9331C30.4113 54.7939 30.5383 54.6761 30.6845 54.5863L52.6135 41.0755V34.8643C52.6135 34.5193 52.7506 34.1884 52.9945 33.9445C53.2385 33.7005 53.5693 33.5635 53.9143 33.5635H55.6487C58.5793 33.5632 61.4807 34.1454 64.1843 35.2763C66.8879 36.4072 69.3398 38.0642 71.3973 40.1511C73.4549 42.2379 75.0772 44.7129 76.1698 47.4322C77.2624 50.1515 77.8036 53.0608 77.762 55.9911ZM75.1604 55.9543C75.1972 53.3687 74.7197 50.8016 73.7556 48.4022C72.7915 46.0028 71.3601 43.819 69.5446 41.9776C67.7291 40.1363 65.5657 38.6742 63.1802 37.6764C60.7946 36.6785 58.2345 36.1648 55.6487 36.165H55.2151V41.8018C55.215 42.024 55.158 42.2425 55.0494 42.4365C54.9409 42.6304 54.7844 42.7933 54.5951 42.9096L33.1647 56.0973L35.4346 59.7265C35.8625 60.311 36.4454 60.764 37.1174 61.0345C37.7894 61.305 38.5237 61.3821 39.2372 61.2571C42.6669 60.6783 49.7345 59.4837 55.9804 63.0392C58.3359 62.9533 60.5663 61.9574 62.2025 60.2609C63.8388 58.5644 64.7535 56.2994 64.7542 53.9424C64.7542 53.5974 64.8912 53.2665 65.1352 53.0226C65.3791 52.7786 65.71 52.6416 66.0549 52.6416C66.3999 52.6416 66.7308 52.7786 66.9747 53.0226C67.2187 53.2665 67.3557 53.5974 67.3557 53.9424C67.3521 56.9285 66.2087 59.8007 64.1591 61.9724C62.1095 64.1441 59.3082 65.4515 56.3273 65.6277L49.9621 74.3798C51.9359 74.9587 53.9868 75.2314 56.0433 75.1885C61.0969 75.0716 65.9093 73.0041 69.4728 69.4188C73.0363 65.8335 75.0744 61.0085 75.1604 55.9543Z" fill="#1B6EA1"/>
</svg>
