<svg width="147" height="452" viewBox="0 0 147 452" fill="none" xmlns="http://www.w3.org/2000/svg">
<path d="M44.4998 24.5H69.9966" stroke="#1B6EA1" stroke-linecap="round"/>
<line x1="69.9966" y1="23.9976" x2="69.9966" y2="125.003" stroke="#1B6EA1"/>
<path d="M69.9932 125H146" stroke="#1B6EA1" stroke-linecap="round"/>
<circle cx="7.5" cy="7.5" r="7.8" transform="matrix(1 0 0 -1 17.9998 32)" stroke="#1B6EA1" stroke-width="0.6"/>
<circle cx="4.5" cy="4.5" r="4.5" transform="matrix(1 0 0 -1 20.9998 29)" fill="#1B6EA1"/>
<path d="M43.9998 426.502H69.9966" stroke="#1B6EA1" stroke-linecap="round"/>
<line y1="-0.5" x2="101.005" y2="-0.5" transform="matrix(0 -1 -1 0 69.4966 427.005)" stroke="#1B6EA1"/>
<path d="M69.9932 326.002H146" stroke="#1B6EA1" stroke-linecap="round"/>
<circle cx="7.5" cy="7.5" r="7.8" transform="matrix(1 0 0 -1 17.9998 434)" stroke="#1B6EA1" stroke-width="0.6"/>
<circle cx="4.5" cy="4.5" r="4.5" transform="matrix(1 0 0 -1 20.9998 431)" fill="#1B6EA1"/>
<path d="M43.9998 225.94L145.997 225.94" stroke="#1B6EA1" stroke-linecap="round"/>
<circle cx="7.5" cy="7.5" r="7.8" transform="matrix(1 0 0 -1 18 233)" stroke="#1B6EA1" stroke-width="0.6"/>
<circle cx="4.5" cy="4.5" r="4.5" transform="matrix(1 0 0 -1 21 230)" fill="#1B6EA1"/>
</svg>
