<svg width="24" height="30" viewBox="0 0 24 30" fill="none" xmlns="http://www.w3.org/2000/svg">
<g clip-path="url(#clip0_1034_715)">
<path d="M11.7072 1.10635C8.8312 1.10635 6.07301 2.24883 4.03939 4.28246C2.00576 6.31608 0.863281 9.07427 0.863281 11.9503V12.7405C1.30231 18.682 6.23401 23.46 11.7072 29.6429C17.4218 23.1893 22.5511 18.3015 22.5511 11.9503C22.5511 9.07427 21.4086 6.31608 19.375 4.28246C17.3414 2.24883 14.5832 1.10635 11.7072 1.10635ZM11.7072 6.7405C12.7393 6.7405 13.7483 7.04666 14.6064 7.62024C15.4645 8.19383 16.1332 9.00905 16.5278 9.96278C16.9225 10.9165 17.0254 11.9659 16.8235 12.9781C16.6216 13.9903 16.124 14.9199 15.3936 15.6492C14.6633 16.3785 13.733 16.8748 12.7205 17.0753C11.708 17.2758 10.6588 17.1714 9.70562 16.7754C8.75245 16.3794 7.93817 15.7096 7.36579 14.8507C6.79341 13.9918 6.48866 12.9824 6.49011 11.9503C6.49205 10.5679 7.04256 9.24276 8.02074 8.26595C8.99892 7.28914 10.3248 6.74049 11.7072 6.7405Z" stroke="#898989" stroke-linecap="round" stroke-linejoin="round"/>
</g>
<defs>
<clipPath id="clip0_1034_715">
<rect width="23.4146" height="30" fill="white" transform="translate(0 0.00878906)"/>
</clipPath>
</defs>
</svg>
