<svg width="167" height="167" viewBox="0 0 167 167" fill="none" xmlns="http://www.w3.org/2000/svg">
<circle cx="83.1695" cy="83.1695" r="81.5057" stroke="#1B6EA1" stroke-width="2.67232"/>
<path d="M64.9433 67.1251C74.9667 68.8917 80.94 72.5884 83 74.7117C85.06 72.5884 91.0333 68.8917 101.06 67.1251C106.137 66.2284 108.677 65.7817 110.837 67.4984C113 69.2117 113 71.9984 113 77.5717V97.5951C113 102.692 113 105.238 111.613 106.828C110.223 108.418 107.17 108.958 101.06 110.035C95.61 110.995 91.36 112.525 88.2833 114.062C85.2533 115.575 83.74 116.332 83 116.332M83 116.332C82.26 116.332 80.7433 115.575 77.7167 114.065C74.64 112.525 70.39 110.995 64.9433 110.032C58.83 108.958 55.7767 108.418 54.3867 106.828C52.9967 105.238 53 102.692 53 97.5951V77.5717C53 71.9984 53 69.2117 55.1633 67.4984C57.3233 65.7817 59.8633 66.2317 64.94 67.1251M83 116.332V72.9984M71.3333 53.1951C74.7884 50.8884 78.8508 49.6601 83.0051 49.666C87.1593 49.672 91.2182 50.9119 94.6667 53.2284M88.4067 61.3317C86.778 60.3424 84.9102 59.8164 83.0046 59.8105C81.0991 59.8046 79.228 60.3191 77.5933 61.2984" stroke="#1B6EA1" stroke-width="4" stroke-linecap="round" stroke-linejoin="round"/>
</svg>
