<svg width="84" height="84" viewBox="0 0 84 84" fill="none" xmlns="http://www.w3.org/2000/svg">
<path d="M38.2265 32.1095C35.8895 33.8436 33.0585 34.7836 30.1484 34.7917C27.1197 34.7917 24.3411 33.7761 22.0676 32.1095C20.1145 33.7371 18.1666 36.0678 16.5729 38.9402C12.8671 45.6147 12.4583 52.461 15.6614 54.2371C17.0885 55.0496 18.5937 54.4402 20.1458 52.9454C19.8551 54.5558 19.7095 56.1891 19.7109 57.8256C19.7109 65.4766 22.6796 71.6589 26.3333 71.6589C28.5364 71.6589 29.6275 69.4063 30.151 65.961C30.6718 69.3829 31.7656 71.6589 33.9531 71.6589C37.5911 71.6589 40.5833 65.474 40.5833 57.8256C40.5833 56.1069 40.4218 54.4662 40.1458 52.948C41.7083 54.4454 43.2083 55.0652 44.6406 54.2423C47.8359 52.4662 47.4218 45.6225 43.7187 38.9454C42.1301 36.0704 40.177 33.7423 38.2239 32.1147L38.2265 32.1095ZM30.1458 32.1876C31.6096 32.1871 33.0591 31.8982 34.4113 31.3376C35.7635 30.7769 36.9921 29.9554 38.0268 28.9199C39.0616 27.8844 39.8823 26.6553 40.442 25.3027C41.0017 23.95 41.2895 22.5004 41.289 21.0365C41.2885 19.5727 40.9997 18.1233 40.439 16.771C39.8783 15.4188 39.0568 14.1902 38.0213 13.1555C36.9858 12.1207 35.7567 11.3001 34.4041 10.7403C33.0515 10.1806 31.6018 9.8928 30.138 9.89331C27.1809 9.89435 24.3453 11.07 22.255 13.1618C20.1648 15.2535 18.9911 18.0899 18.9921 21.047C18.9932 24.0041 20.1689 26.8396 22.2606 28.9299C24.3523 31.0201 27.1887 32.1938 30.1458 32.1928V32.1876ZM57.9244 46.4324C61.8515 46.4324 65.039 43.2449 65.039 39.3126C65.039 35.3803 61.8463 32.1876 57.9218 32.1876C56.0324 32.1883 54.2205 32.9392 52.8844 34.2752C51.5484 35.6113 50.7975 37.4231 50.7968 39.3126C50.7982 41.202 51.5497 43.0136 52.8863 44.3492C54.2228 45.6847 56.035 46.4324 57.9244 46.4324ZM66.5963 50.7475C65.5807 48.9115 64.3359 47.422 63.0859 46.3803C61.6275 47.448 59.8567 48.099 57.9218 48.099C55.9869 48.099 54.2083 47.448 52.7578 46.3803C51.5078 47.422 50.263 48.9115 49.2421 50.7475C46.8723 55.0131 46.6119 59.3881 48.6588 60.5235C49.5703 61.0444 50.5338 60.6537 51.5234 59.7006C51.3439 60.73 51.2533 61.7729 51.2525 62.8178C51.2525 67.7136 53.1484 71.6641 55.4843 71.6641C56.8906 71.6641 57.5937 70.224 57.927 68.0235C58.2604 70.211 58.9583 71.6615 60.3593 71.6615C62.6848 71.6615 64.5963 67.7084 64.5963 62.8178C64.5963 61.724 64.4921 60.672 64.315 59.7032C65.3124 60.6589 66.2734 61.0574 67.19 60.5287C69.2265 59.3985 68.9609 55.0209 66.5963 50.7553V50.7475Z" fill="white"/>
</svg>
