<svg width="51" height="50" viewBox="0 0 51 50" fill="none" xmlns="http://www.w3.org/2000/svg">
<path d="M23.2282 18.795C21.8422 19.8234 20.1633 20.3809 18.4375 20.3857C16.6414 20.3857 14.9935 19.7834 13.6453 18.795C12.487 19.7602 11.3318 21.1424 10.3867 22.8459C8.189 26.8041 7.94654 30.8643 9.84612 31.9176C10.6924 32.3994 11.5851 32.038 12.5055 31.1516C12.3331 32.1066 12.2468 33.0752 12.2476 34.0457C12.2476 38.5831 14.0082 42.2495 16.175 42.2495C17.4815 42.2495 18.1286 40.9136 18.4391 38.8704C18.7479 40.8997 19.3966 42.2495 20.6939 42.2495C22.8514 42.2495 24.6258 38.5816 24.6258 34.0457C24.6258 33.0265 24.5301 32.0535 24.3664 31.1531C25.293 32.0411 26.1826 32.4087 27.032 31.9207C28.9269 30.8674 28.6814 26.8088 26.4853 22.849C25.5432 21.144 24.3849 19.7633 23.2266 18.7981L23.2282 18.795ZM18.436 18.8413C19.3041 18.841 20.1637 18.6697 20.9656 18.3372C21.7675 18.0047 22.4961 17.5175 23.1098 16.9034C23.7234 16.2894 24.2101 15.5604 24.542 14.7583C24.874 13.9561 25.0447 13.0964 25.0444 12.2283C25.0441 11.3601 24.8728 10.5006 24.5403 9.69864C24.2078 8.89671 23.7206 8.16812 23.1065 7.55447C22.4924 6.94082 21.7635 6.45414 20.9613 6.1222C20.1592 5.79026 19.2995 5.61957 18.4313 5.61987C16.6777 5.62049 14.996 6.31772 13.7564 7.5582C12.5168 8.79867 11.8208 10.4808 11.8214 12.2345C11.822 13.9881 12.5192 15.6697 13.7597 16.9094C15.0002 18.149 16.6823 18.845 18.436 18.8444V18.8413ZM34.9099 27.2891C37.2388 27.2891 39.1291 25.3988 39.1291 23.0667C39.1291 20.7347 37.2357 18.8413 34.9083 18.8413C33.7878 18.8417 32.7133 19.287 31.921 20.0794C31.1286 20.8717 30.6833 21.9462 30.6829 23.0667C30.6837 24.1873 31.1294 25.2616 31.922 26.0537C32.7147 26.8457 33.7893 27.2891 34.9099 27.2891ZM40.0527 29.8481C39.4504 28.7593 38.7121 27.8759 37.9708 27.2582C37.106 27.8914 36.0558 28.2775 34.9083 28.2775C33.7609 28.2775 32.706 27.8914 31.8458 27.2582C31.1045 27.8759 30.3663 28.7593 29.7609 29.8481C28.3555 32.3778 28.2011 34.9724 29.415 35.6457C29.9555 35.9546 30.5269 35.7229 31.1138 35.1577C31.0074 35.7682 30.9536 36.3866 30.9532 37.0063C30.9532 39.9098 32.0775 42.2526 33.4628 42.2526C34.2968 42.2526 34.7137 41.3985 34.9114 40.0935C35.1091 41.3908 35.523 42.251 36.3539 42.251C37.733 42.251 38.8666 39.9067 38.8666 37.0063C38.8666 36.3577 38.8048 35.7338 38.6998 35.1592C39.2913 35.726 39.8612 35.9623 40.4048 35.6488C41.6125 34.9785 41.455 32.3824 40.0527 29.8527V29.8481Z" fill="#656565"/>
</svg>
