<svg width="167" height="167" viewBox="0 0 167 167" fill="none" xmlns="http://www.w3.org/2000/svg">
<circle cx="83.1695" cy="83.1695" r="81.5057" stroke="#1B6EA1" stroke-width="2.67232"/>
<path d="M92.0187 57.3783H73.9787C71.798 57.3775 69.6384 57.8063 67.6234 58.6403C65.6084 59.4744 63.7775 60.6973 62.2353 62.2392C60.6931 63.7811 59.4698 65.6117 58.6354 67.6266C57.8009 69.6414 57.3716 71.8009 57.3721 73.9817V92.0217C57.3712 94.2027 57.8001 96.3626 58.6344 98.3778C59.4686 100.393 60.6919 102.224 62.2341 103.766C63.7763 105.309 65.6074 106.532 67.6226 107.366C69.6378 108.2 71.7977 108.629 73.9787 108.628H92.0187C94.1998 108.629 96.3597 108.2 98.3749 107.366C100.39 106.532 102.221 105.309 103.763 103.766C105.306 102.224 106.529 100.393 107.363 98.3778C108.197 96.3626 108.626 94.2027 108.625 92.0217V73.9817C108.626 71.8006 108.197 69.6407 107.363 67.6255C106.529 65.6103 105.306 63.7793 103.763 62.237C102.221 60.6948 100.39 59.4716 98.3749 58.6373C96.3597 57.8031 94.1998 57.3741 92.0187 57.375V57.3783Z" stroke="#1B6EA1" stroke-width="5"/>
<path d="M108.354 94.9635H113.751C114.657 94.9635 115.526 94.6036 116.167 93.9628C116.807 93.3221 117.167 92.453 117.167 91.5469V74.4635C117.167 73.5574 116.807 72.6883 116.167 72.0476C115.526 71.4068 114.657 71.0469 113.751 71.0469H108.351M57.6507 94.9635H52.2507C51.802 94.9635 51.3577 94.8752 50.9431 94.7035C50.5286 94.5318 50.152 94.2801 49.8347 93.9628C49.5174 93.6456 49.2658 93.2689 49.0941 92.8544C48.9224 92.4398 48.834 91.9956 48.834 91.5469V74.4635C48.834 73.5574 49.194 72.6883 49.8347 72.0476C50.4755 71.4068 51.3445 71.0469 52.2507 71.0469H57.6507" stroke="#1B6EA1" stroke-width="5"/>
<path d="M52.2158 71.0475V57.3809M113.749 71.0475L113.716 57.3809M76.1658 93.7942C77.9828 95.5977 80.4391 96.6097 82.9992 96.6097C85.5592 96.6097 88.0155 95.5977 89.8325 93.7942M69.2658 79.5875L72.6758 76.1709L76.0925 79.5875M89.7658 79.5875L93.1825 76.1709L96.5958 79.5875" stroke="#1B6EA1" stroke-width="5" stroke-linecap="round" stroke-linejoin="round"/>
</svg>
