<svg width="115" height="115" viewBox="0 0 115 115" fill="none" xmlns="http://www.w3.org/2000/svg">
<circle cx="57.5" cy="57.5264" r="56.425" stroke="#1B6EA1" stroke-width="1.85"/>
<path d="M49.29 55.6777C49.29 55.2177 49.4728 54.7766 49.798 54.4513C50.1233 54.1261 50.5644 53.9434 51.0244 53.9434H53.915V51.0527C53.915 50.5927 54.0978 50.1516 54.423 49.8263C54.7483 49.5011 55.1894 49.3184 55.6494 49.3184C56.1094 49.3184 56.5505 49.5011 56.8758 49.8263C57.2011 50.1516 57.3838 50.5927 57.3838 51.0527V53.9434H60.2744C60.7344 53.9434 61.1755 54.1261 61.5008 54.4513C61.8261 54.7766 62.0088 55.2177 62.0088 55.6777C62.0088 56.1377 61.8261 56.5789 61.5008 56.9041C61.1755 57.2294 60.7344 57.4121 60.2744 57.4121H57.3838V60.3027C57.3838 60.7627 57.2011 61.2039 56.8758 61.5291C56.5505 61.8544 56.1094 62.0371 55.6494 62.0371C55.1894 62.0371 54.7483 61.8544 54.423 61.5291C54.0978 61.2039 53.915 60.7627 53.915 60.3027V57.4121H51.0244C50.5644 57.4121 50.1233 57.2294 49.798 56.9041C49.4728 56.5789 49.29 56.1377 49.29 55.6777Z" fill="#1B6EA1"/>
<path fill-rule="evenodd" clip-rule="evenodd" d="M55.6504 30.8184C41.9211 30.8184 30.791 41.9484 30.791 55.6777C30.791 69.407 41.9211 80.5371 55.6504 80.5371C69.3797 80.5371 80.5098 69.407 80.5098 55.6777C80.5098 41.9484 69.3797 30.8184 55.6504 30.8184ZM53.916 34.3565C48.8585 34.7677 44.1119 36.9633 40.524 40.5513C36.936 44.1393 34.7403 48.8859 34.3291 53.9434H39.4629C39.9229 53.9434 40.364 54.1261 40.6893 54.4513C41.0145 54.7766 41.1973 55.2177 41.1973 55.6777C41.1973 56.1377 41.0145 56.5789 40.6893 56.9041C40.364 57.2294 39.9229 57.4121 39.4629 57.4121H34.3291C34.7403 62.4696 36.936 67.2162 40.524 70.8042C44.1119 74.3921 48.8585 76.5878 53.916 76.999V71.8652C53.916 71.4053 54.0987 70.9641 54.424 70.6388C54.7493 70.3136 55.1904 70.1309 55.6504 70.1309C56.1104 70.1309 56.5515 70.3136 56.8768 70.6388C57.202 70.9641 57.3848 71.4053 57.3848 71.8652V76.999C62.4422 76.5878 67.1888 74.3921 70.7768 70.8042C74.3648 67.2162 76.5605 62.4696 76.9716 57.4121H71.8379C71.3779 57.4121 70.9368 57.2294 70.6115 56.9041C70.2862 56.5789 70.1035 56.1377 70.1035 55.6777C70.1035 55.2177 70.2862 54.7766 70.6115 54.4513C70.9368 54.1261 71.3779 53.9434 71.8379 53.9434H76.9716C76.5605 48.8859 74.3648 44.1393 70.7768 40.5513C67.1888 36.9633 62.4422 34.7677 57.3848 34.3565V39.4902C57.3848 39.9502 57.202 40.3914 56.8768 40.7166C56.5515 41.0419 56.1104 41.2246 55.6504 41.2246C55.1904 41.2246 54.7493 41.0419 54.424 40.7166C54.0987 40.3914 53.916 39.9502 53.916 39.4902V34.3565Z" fill="#1B6EA1"/>
</svg>
