<svg width="167" height="167" viewBox="0 0 167 167" fill="none" xmlns="http://www.w3.org/2000/svg">
<circle cx="83.1695" cy="83.1695" r="81.5057" stroke="#1B6EA1" stroke-width="2.67232"/>
<path d="M75.3815 102.046L67.7625 115.379M90.6196 102.046L98.2387 113.474M48.7148 60.1411H117.286M109.667 98.2364V60.084H56.3339V98.2364C56.3339 99.2467 56.7353 100.216 57.4497 100.93C58.1641 101.645 59.1331 102.046 60.1434 102.046H105.858C106.868 102.046 107.837 101.645 108.551 100.93C109.266 100.216 109.667 99.2467 109.667 98.2364Z" stroke="#1B6EA1" stroke-width="4" stroke-linecap="round" stroke-linejoin="round"/>
<path fill-rule="evenodd" clip-rule="evenodd" d="M82.9971 52.5176C84.9198 52.5216 86.7703 53.2507 88.1791 54.5592C89.5879 55.8677 90.4513 57.6594 90.5971 59.5766L90.6199 60.1442L75.3818 60.1366C75.378 55.9271 78.7876 52.5176 82.9971 52.5176Z" stroke="#1B6EA1" stroke-width="4" stroke-linecap="round" stroke-linejoin="round"/>
</svg>
