<svg width="115" height="115" viewBox="0 0 115 115" fill="none" xmlns="http://www.w3.org/2000/svg">
<circle cx="57.499" cy="57.5254" r="56.425" stroke="#1B6EA1" stroke-width="1.85"/>
<path d="M34.8369 62.6123C40.5789 62.6123 44.8847 55.6748 44.8847 55.6748C44.8847 55.6748 49.1906 62.6123 54.9325 62.6123C60.6745 62.6123 66.4141 55.6748 66.4141 55.6748C66.4141 55.6748 72.156 62.6123 76.4619 62.6123M34.8369 74.1748C40.5789 74.1748 44.8847 67.2373 44.8847 67.2373C44.8847 67.2373 49.1906 74.1748 54.9325 74.1748C60.6745 74.1748 66.4141 67.2373 66.4141 67.2373C66.4141 67.2373 72.156 74.1748 76.4619 74.1748M39.4619 52.2061L48.7119 46.4248L45.967 42.9931C45.7225 42.6882 45.5418 42.3372 45.4358 41.961C45.3297 41.5849 45.3004 41.1912 45.3496 40.8035C45.3988 40.4158 45.5254 40.0419 45.7221 39.7042C45.9187 39.3664 46.1813 39.0717 46.4942 38.8375C47.0923 38.3881 47.8403 38.1859 48.5833 38.2729C49.3264 38.3598 50.0075 38.7293 50.4856 39.3046L60.2744 51.0498M66.0557 46.4248C67.5889 46.4248 69.0594 45.8157 70.1436 44.7315C71.2278 43.6473 71.8369 42.1768 71.8369 40.6436C71.8369 39.1103 71.2278 37.6398 70.1436 36.5556C69.0594 35.4714 67.5889 34.8623 66.0557 34.8623C64.5224 34.8623 63.0519 35.4714 61.9677 36.5556C60.8835 37.6398 60.2744 39.1103 60.2744 40.6436C60.2744 42.1768 60.8835 43.6473 61.9677 44.7315C63.0519 45.8157 64.5224 46.4248 66.0557 46.4248Z" stroke="#1B6EA1" stroke-width="3.46875" stroke-linecap="round" stroke-linejoin="round"/>
</svg>
