<svg width="115" height="115" viewBox="0 0 115 115" fill="none" xmlns="http://www.w3.org/2000/svg">
<circle cx="57.5" cy="57.5264" r="56.425" stroke="#1B6EA1" stroke-width="1.85"/>
<path d="M40.041 34.8643C37.188 34.8643 34.8379 37.2143 34.8379 40.0674C34.8379 42.9204 37.188 45.2705 40.041 45.2705C42.8941 45.2705 45.2441 42.9204 45.2441 40.0674C45.2441 37.2143 42.8941 34.8643 40.041 34.8643ZM60.746 36.4356C60.2021 36.4442 59.6591 36.4813 59.1191 36.5466C54.837 37.0478 50.841 39.2418 47.7919 42.2909C45.65 44.4241 43.8757 47.494 43.293 53.1845C43.2724 53.2379 43.2544 53.2923 43.2392 53.3475V53.4013C43.1952 53.4888 43.1586 53.5799 43.1299 53.6736C43.123 53.7134 43.1369 53.7343 43.1299 53.7811V53.9979C43.1455 54.2226 43.2007 54.4428 43.293 54.6483C43.3797 56.2075 43.5982 57.7996 44.1602 59.3103H44.1064C44.1324 59.4594 44.3093 60.2035 44.3232 60.9354C44.3301 61.4852 44.1324 61.9864 44.1064 62.1286C43.0484 63.1779 41.7823 64.2758 40.5839 65.2176C39.3854 66.1593 38.3465 66.9727 37.6007 67.7116H37.5487C37.1029 68.1812 36.7765 68.751 36.5969 69.373C36.4173 69.9951 36.3898 70.6512 36.5168 71.2861C36.7804 72.5002 37.4776 73.5495 38.4124 74.4843C39.3421 75.4122 40.3983 76.1025 41.6106 76.38C42.823 76.6575 44.2937 76.3002 45.2424 75.3515C46.0021 74.5919 46.734 73.5217 47.6809 72.3163C48.6296 71.1092 49.7067 69.8015 50.7699 68.7383C50.6485 68.8597 51.1774 68.577 51.8556 68.577C52.4036 68.577 52.858 68.6291 53.2084 68.6846C53.2986 68.6984 53.4807 68.7314 53.5345 68.7383C55.0451 69.3003 56.639 69.5119 58.1965 69.6055C58.2155 69.6055 58.2311 69.661 58.2502 69.661C58.3739 69.6922 58.5005 69.7096 58.63 69.7131C58.6829 69.7342 58.7367 69.7527 58.7913 69.7686H59.1191C59.2278 69.7605 59.3365 69.7425 59.4452 69.7148C59.5128 69.7078 59.5389 69.6662 59.6065 69.6593H59.662C64.8842 69.2257 68.3859 67.3352 70.6094 65.1066C73.6584 62.0593 75.8524 58.0615 76.3554 53.7811C76.8566 49.4972 75.5211 44.9254 71.7471 41.1514C68.4483 37.8526 64.5391 36.4096 60.746 36.4356ZM40.041 38.333C41.0175 38.333 41.7754 39.0927 41.7754 40.0674C41.7754 41.0421 41.0157 41.8018 40.041 41.8018C39.0663 41.8018 38.3066 41.0421 38.3066 40.0674C38.3066 39.0927 39.0663 38.333 40.041 38.333ZM60.746 39.9044C63.6719 39.8506 66.6047 40.8877 69.3086 43.5899C72.4044 46.6788 73.2803 50.0591 72.8866 53.3995C72.4929 56.7399 70.7377 60.1011 68.1691 62.668C66.4434 64.3955 63.9372 65.7448 59.5527 66.1368L46.7617 53.3458C47.2699 48.4548 48.4753 46.5921 50.2842 44.7831C52.8511 42.2163 56.1516 40.4056 59.499 40.0136C59.9187 39.9651 60.3263 39.9113 60.746 39.9044ZM47.5734 59.1455L53.7512 65.2696C53.1247 65.1607 52.4898 65.1067 51.8538 65.1083C50.7976 65.1135 49.4569 65.1759 48.3331 66.2998C47.138 67.5155 46.0156 68.8006 44.9718 70.1484C44.0023 71.3798 43.1421 72.5193 42.7501 72.9112C42.5455 73.1159 42.646 73.0812 42.3685 73.0205C42.091 72.9598 41.5291 72.6147 40.9065 71.9903C40.296 71.3815 39.9925 70.8178 39.93 70.5282C39.8693 70.2368 39.8086 70.3166 39.9855 70.1466C40.3497 69.7824 41.4545 68.9014 42.6946 67.9266C43.9347 66.9519 45.3499 65.8107 46.597 64.5654C47.7971 63.367 47.811 61.9777 47.7902 60.8799C47.7763 60.0474 47.648 59.5583 47.5734 59.1455Z" fill="#1B6EA1"/>
</svg>
