<svg width="167" height="167" viewBox="0 0 167 167" fill="none" xmlns="http://www.w3.org/2000/svg">
<circle cx="83.1695" cy="83.1695" r="81.5057" stroke="#1B6EA1" stroke-width="2.67232"/>
<path d="M118.874 77.6211C117.624 76.6211 115.999 76.2461 114.374 76.6211L102.499 79.2461C102.124 75.3711 98.749 72.2461 94.749 72.2461H91.374C92.249 70.6211 92.749 68.8711 92.749 66.8711C92.749 60.8711 87.874 55.8711 81.874 55.8711C76.124 55.8711 71.499 60.2461 70.999 65.8711C69.624 62.9961 66.749 60.8711 63.374 60.8711C58.749 60.8711 54.874 64.6211 54.874 69.3711C54.874 70.3711 54.999 71.2461 55.374 72.2461H52.999C48.749 72.2461 45.124 75.7461 45.124 80.1211V102.246C45.124 106.496 48.624 110.121 52.999 110.121H94.749C98.999 110.121 102.624 106.621 102.624 102.246V101.621L114.374 104.246C114.749 104.371 115.124 104.371 115.499 104.371C116.749 104.371 117.874 103.996 118.749 103.246C119.999 102.246 120.749 100.746 120.749 99.1211V81.7461C120.874 80.1211 120.124 78.6211 118.874 77.6211ZM81.874 61.6211C84.749 61.6211 87.124 63.9961 87.124 66.9961C87.124 69.9961 84.749 72.3711 81.874 72.3711C78.999 72.3711 76.499 69.9961 76.499 66.9961C76.499 63.9961 78.999 61.6211 81.874 61.6211ZM72.374 72.2461H71.374L71.749 70.7461C71.874 71.2461 71.999 71.7461 72.374 72.2461ZM60.499 69.4961C60.499 67.9961 61.749 66.6211 63.374 66.6211C64.999 66.6211 66.249 67.8711 66.249 69.4961C66.249 71.1211 64.999 72.3711 63.374 72.3711C61.749 72.3711 60.499 70.9961 60.499 69.4961ZM96.999 102.121C96.999 103.371 95.999 104.371 94.749 104.371H52.999C51.749 104.371 50.749 103.371 50.749 102.121V80.1211C50.749 78.8711 51.749 77.8711 52.999 77.8711H94.749C95.999 77.8711 96.999 78.8711 96.999 80.1211V102.121ZM115.249 98.6211L102.624 95.8711V84.9961L115.249 82.2461V98.6211Z" fill="#1B6EA1"/>
</svg>
